<?xml version="1.0" encoding="UTF-8"?>
<svg version="1.1" xmlns="http://www.w3.org/2000/svg" width="274" height="41">
<path d="M0 0 C0.76313004 -0.0066568 1.52626007 -0.0133136 2.31251526 -0.02017212 C3.92552278 -0.03029057 5.5385721 -0.03498939 7.15161133 -0.03466797 C9.61675091 -0.03904094 12.08009912 -0.07536469 14.54492188 -0.11328125 C16.11327514 -0.11914972 17.68163689 -0.12311891 19.25 -0.125 C20.35328896 -0.14655655 20.35328896 -0.14655655 21.47886658 -0.16854858 C24.77061004 -0.13922508 26.86660484 0.12654384 29.65673828 1.92529297 C31.74039528 5.1982852 31.69322201 7.50010493 31.6875 11.3671875 C31.68895523 12.04011841 31.69041046 12.71304932 31.69190979 13.40637207 C31.69025425 14.8251581 31.67873128 16.24396273 31.65795898 17.66259766 C31.62899592 19.82922967 31.63735574 21.99341374 31.65039062 24.16015625 C31.64415267 25.54167851 31.63576127 26.92319307 31.625 28.3046875 C31.61525146 29.55701172 31.60550293 30.80933594 31.59545898 32.09960938 C31.19140625 35.3359375 31.19140625 35.3359375 30.25024414 37.74438477 C26.80585489 40.40701651 23.04155156 39.88513596 18.81640625 39.83203125 C17.43509521 39.8342141 17.43509521 39.8342141 16.02587891 39.83644104 C14.07906938 39.83478117 12.13224685 39.82321006 10.18554688 39.80249023 C7.20255906 39.77354572 4.22134891 39.78187711 1.23828125 39.79492188 C-0.6523524 39.78868424 -2.54298044 39.78029311 -4.43359375 39.76953125 C-5.32739746 39.77246689 -6.22120117 39.77540253 -7.14208984 39.77842712 C-7.97305176 39.76574295 -8.80401367 39.75305878 -9.66015625 39.73999023 C-10.39057129 39.73458725 -11.12098633 39.72918427 -11.87353516 39.72361755 C-14.37442684 39.22257545 -15.27142928 38.34042433 -16.80859375 36.3359375 C-17.16503906 33.58032227 -17.16503906 33.58032227 -17.13671875 30.27734375 C-17.1315625 29.08689453 -17.12640625 27.89644531 -17.12109375 26.66992188 C-17.10046875 25.42533203 -17.07984375 24.18074219 -17.05859375 22.8984375 C-17.0534375 21.65771484 -17.04828125 20.41699219 -17.04296875 19.13867188 C-16.9501714 8.41477767 -16.9501714 8.41477767 -15.80859375 5.3359375 C-13.43359375 3.7109375 -13.43359375 3.7109375 -10.80859375 2.3359375 C-7.12213546 -0.12170136 -4.26909509 0.01288251 0 0 Z M6.19140625 3.3359375 C5.79308594 3.98046875 5.39476563 4.625 4.984375 5.2890625 C3.19140625 7.3359375 3.19140625 7.3359375 0.0546875 7.9453125 C-1.70294922 8.01492188 -1.70294922 8.01492188 -3.49609375 8.0859375 C-4.67558594 8.14265625 -5.85507813 8.199375 -7.0703125 8.2578125 C-7.97394531 8.28359375 -8.87757812 8.309375 -9.80859375 8.3359375 C-10.70657461 11.36434541 -10.88100964 13.91780255 -10.72265625 17.06640625 C-10.67882812 17.95134766 -10.635 18.83628906 -10.58984375 19.74804688 C-10.53828125 20.66392578 -10.48671875 21.57980469 -10.43359375 22.5234375 C-10.38976562 23.45091797 -10.3459375 24.37839844 -10.30078125 25.33398438 C-10.45381522 29.67378962 -10.45381522 29.67378962 -8.80859375 33.3359375 C-6.43290855 33.4243342 -4.08650701 33.45124055 -1.7109375 33.43359375 C-1.00207901 33.4321788 -0.29322052 33.43076385 0.43711853 33.42930603 C2.70942337 33.42369193 4.981631 33.41113713 7.25390625 33.3984375 C8.79101421 33.39342431 10.3281237 33.38886109 11.86523438 33.38476562 C15.64066267 33.37371792 19.41601796 33.35644391 23.19140625 33.3359375 C24.37537626 30.96799747 24.32053626 29.51012441 24.32421875 26.87109375 C24.32550781 25.98873047 24.32679687 25.10636719 24.328125 24.19726562 C24.32232422 22.8118457 24.32232422 22.8118457 24.31640625 21.3984375 C24.32027344 20.47869141 24.32414062 19.55894531 24.328125 18.61132812 C24.32683594 17.72767578 24.32554688 16.84402344 24.32421875 15.93359375 C24.32252686 14.71941772 24.32252686 14.71941772 24.32080078 13.48071289 C24.27291232 11.14958312 24.27291232 11.14958312 23.19140625 8.3359375 C22.27617188 8.31015625 21.3609375 8.284375 20.41796875 8.2578125 C19.22945312 8.20109375 18.0409375 8.144375 16.81640625 8.0859375 C15.63304688 8.03953125 14.4496875 7.993125 13.23046875 7.9453125 C10.19140625 7.3359375 10.19140625 7.3359375 8.77734375 5.2890625 C8.58398438 4.64453125 8.390625 4 8.19140625 3.3359375 C7.53140625 3.3359375 6.87140625 3.3359375 6.19140625 3.3359375 Z " fill="#030202" transform="translate(16.80859375,0.6640625)"/>
<path d="M0 0 C3.96 0 7.92 0 12 0 C13.28980123 3.69743019 14.22714361 7.13571805 15 11 C15.99 7.37 16.98 3.74 18 0 C21.96 0 25.92 0 30 0 C30 11.22 30 22.44 30 34 C27.03 34 24.06 34 21 34 C20 32 20 32 20 28 C19.67 28.66 19.34 29.32 19 30 C12.84765625 30.09765625 12.84765625 30.09765625 11 30 C10.67 29.67 10.34 29.34 10 29 C9.505 31.475 9.505 31.475 9 34 C6.03 34 3.06 34 0 34 C0 22.78 0 11.56 0 0 Z " fill="#040102" transform="translate(54,4)"/>
<path d="M0 0 C2.866875 -0.061875 5.73375 -0.12375 8.6875 -0.1875 C10.02880981 -0.22846802 10.02880981 -0.22846802 11.3972168 -0.27026367 C16.0965643 -0.31927559 19.19307422 -0.07368521 23 3 C24.71690865 5.53803888 25.09686984 7.17877506 24.73828125 10.21875 C23.95581897 14.07472411 23.21082436 16.68376346 21 20 C21.86812664 22.95770425 21.86812664 22.95770425 23.375 26.0625 C26 31.85294118 26 31.85294118 26 34 C22.37 34 18.74 34 15 34 C14.01 32.02 13.02 30.04 12 28 C11.67 29.98 11.34 31.96 11 34 C7.37 34 3.74 34 0 34 C0 22.78 0 11.56 0 0 Z M11 8 C11 9.65 11 11.3 11 13 C11.66 13 12.32 13 13 13 C13.33 11.68 13.66 10.36 14 9 C13.01 8.67 12.02 8.34 11 8 Z " fill="#030101" transform="translate(167,4)"/>
<path d="M0 0 C0.87454834 0.00523682 1.74909668 0.01047363 2.65014648 0.01586914 C3.59438477 0.0190918 4.53862305 0.02231445 5.51147461 0.02563477 C6.50469727 0.03401367 7.49791992 0.04239258 8.52124023 0.05102539 C9.51833008 0.05553711 10.51541992 0.06004883 11.54272461 0.06469727 C14.01478872 0.07652532 16.48673541 0.0930069 18.95874023 0.11352539 C18.95874023 3.08352539 18.95874023 6.05352539 18.95874023 9.11352539 C15.65874023 9.11352539 12.35874023 9.11352539 8.95874023 9.11352539 C8.95874023 10.10352539 8.95874023 11.09352539 8.95874023 12.11352539 C11.59874023 12.11352539 14.23874023 12.11352539 16.95874023 12.11352539 C16.95874023 15.08352539 16.95874023 18.05352539 16.95874023 21.11352539 C14.31874023 21.11352539 11.67874023 21.11352539 8.95874023 21.11352539 C8.95874023 22.43352539 8.95874023 23.75352539 8.95874023 25.11352539 C12.25874023 25.11352539 15.55874023 25.11352539 18.95874023 25.11352539 C18.95874023 28.08352539 18.95874023 31.05352539 18.95874023 34.11352539 C12.02874023 34.11352539 5.09874023 34.11352539 -2.04125977 34.11352539 C-2.20672231 29.43220816 -2.36910748 24.75100252 -2.5234375 20.06933594 C-2.57692771 18.47552283 -2.63226232 16.88177054 -2.68945312 15.28808594 C-2.77116919 13.00216797 -2.84632873 10.71611593 -2.92016602 8.42993164 C-2.94720108 7.71325821 -2.97423615 6.99658478 -3.00209045 6.25819397 C-3.05423621 4.54404772 -3.05311605 2.82842363 -3.04125977 1.11352539 C-2.04125977 0.11352539 -2.04125977 0.11352539 0 0 Z " fill="#030202" transform="translate(253.041259765625,3.886474609375)"/>
<path d="M0 0 C2.99275525 1.31332561 3.84798996 2.33830337 6 5 C6.9375 8.75 6.9375 8.75 7 12 C5.10511048 13.89488952 2.42860854 13.18019112 -0.08984375 13.23046875 C-2 13 -2 13 -4 11 C-4 10.01 -4 9.02 -4 8 C-4.99 8 -5.98 8 -7 8 C-7 13.94 -7 19.88 -7 26 C-6.01 26 -5.02 26 -4 26 C-3.67 24.35 -3.34 22.7 -3 21 C0.3 21 3.6 21 7 21 C7.34717213 24.73210035 7.2922789 26.54070458 5.25 29.75 C1.93126291 33.06873709 -0.74520131 34.2881033 -5.4375 34.3125 C-9.41709009 34.21448054 -11.85425523 33.59061334 -15 31 C-19.55732005 25.95439566 -19.28644616 20.51220004 -19.21484375 13.98046875 C-18.84027706 8.78420715 -17.33506701 5.62711292 -14 1.5625 C-9.38571696 -0.84077242 -5.08787197 -0.84922021 0 0 Z " fill="#030202" transform="translate(139,4)"/>
<path d="M0 0 C2.42217793 2.12858061 3.78897652 3.84094522 5.0625 6.8125 C4.75 9.625 4.75 9.625 4.0625 11.8125 C-1.9921875 12.0078125 -1.9921875 12.0078125 -3.9375 11.8125 C-4.5975 11.1525 -5.2575 10.4925 -5.9375 9.8125 C-5.9375 8.8225 -5.9375 7.8325 -5.9375 6.8125 C-6.9275 6.8125 -7.9175 6.8125 -8.9375 6.8125 C-8.9375 12.7525 -8.9375 18.6925 -8.9375 24.8125 C-6.4375 23.8125 -6.4375 23.8125 -4.9375 19.8125 C-1.6375 19.8125 1.6625 19.8125 5.0625 19.8125 C4.80635063 24.16703922 4.48972153 26.30859768 1.625 29.6875 C-2.30658985 32.94784281 -4.71257491 33.09508331 -9.68359375 33.03125 C-13.76266862 32.63536058 -16.01327575 30.83574828 -18.6875 27.875 C-22.23547593 22.02083972 -21.75420656 13.85744822 -20.44140625 7.35546875 C-19.42680527 4.26580813 -18.21057654 2.0773015 -15.875 -0.1875 C-10.56001984 -1.99685495 -5.22685052 -2.11298213 0 0 Z " fill="#040203" transform="translate(215.9375,5.1875)"/>
<path d="M0 0 C3.63 0 7.26 0 11 0 C11.99 1.98 12.98 3.96 14 6 C14.99 4.02 15.98 2.04 17 0 C20.96 0 24.92 0 29 0 C27.73692358 4.16144019 26.1223448 7.62801801 23.9375 11.375 C20.11985591 18.75020538 20.02064128 25.86733642 20 34 C16.37 34 12.74 34 9 34 C7.59150211 31.18300422 8.20527301 29.01185073 8.4375 25.875 C8.56368801 17.74849233 5.66184714 12.17592496 1.75 5.203125 C0 2 0 2 0 0 Z " fill="#040203" transform="translate(88,4)"/>
<path d="M0 0 C3.63 0 7.26 0 11 0 C11 8.25 11 16.5 11 25 C13.97 25 16.94 25 20 25 C20 27.97 20 30.94 20 34 C13.4 34 6.8 34 0 34 C0 22.78 0 11.56 0 0 Z " fill="#050304" transform="translate(226,4)"/>
<path d="M0 0 C3.96 0 7.92 0 12 0 C12.02465288 4.68139254 12.04283739 9.36274759 12.05493164 14.04418945 C12.05997157 15.63794614 12.0668035 17.23169819 12.07543945 18.82543945 C12.08751999 21.11150253 12.09323155 23.39750467 12.09765625 25.68359375 C12.10281754 26.40026718 12.10797882 27.11694061 12.11329651 27.85533142 C12.11349263 29.57063672 12.06192007 31.28581266 12 33 C11.505 33.495 11.505 33.495 11 34 C7.37 34 3.74 34 0 34 C0 22.78 0 11.56 0 0 Z " fill="#020000" transform="translate(151,4)"/>
<path d="M0 0 C3.96 0 7.92 0 12 0 C11.67 10.23 11.34 20.46 11 31 C10.34 31.33 9.68 31.66 9 32 C9 21.77 9 11.54 9 1 C7.02 1 5.04 1 3 1 C3 11.23 3 21.46 3 32 C0.95296183 27.90592366 0.70784739 25.95440419 0.5859375 21.484375 C0.54726562 20.23398437 0.50859375 18.98359375 0.46875 17.6953125 C0.4378125 16.39335937 0.406875 15.09140625 0.375 13.75 C0.33632812 12.43257812 0.29765625 11.11515625 0.2578125 9.7578125 C0.16354081 6.50543922 0.08068151 3.25273879 0 0 Z " fill="#110D0F" transform="translate(151,4)"/>
<path d="M0 0 C2.89640118 -0.08120751 5.79050912 -0.14059421 8.6875 -0.1875 C9.50412109 -0.21263672 10.32074219 -0.23777344 11.16210938 -0.26367188 C15.95121555 -0.32183916 19.11668518 -0.13536119 23 3 C24.71690865 5.53803888 25.09686984 7.17877506 24.73828125 10.21875 C23.95581897 14.07472411 23.21082436 16.68376346 21 20 C21.71861904 21.7312186 22.44650576 23.46055157 23.26171875 25.1484375 C24.31602819 27.79257864 24.20525825 30.19480385 24 33 C20.17637641 28.13356998 18.33223948 24.31255015 18 18 C18.96885372 16.31503702 19.96986723 14.64821244 21 13 C21.3804212 8.58711402 21.48386059 6.72579089 19 3 C16.07832766 2.4547378 13.32175764 2.07321151 10.375 1.8125 C9.57320312 1.73064453 8.77140625 1.64878906 7.9453125 1.56445312 C5.96474429 1.36403849 3.98248968 1.1804193 2 1 C2 3.31 2 5.62 2 8 C1.01 8.495 1.01 8.495 0 9 C0 6.03 0 3.06 0 0 Z " fill="#130F11" transform="translate(167,4)"/>
<path d="M0 0 C3.02286884 1.38548155 4.66871425 2.66871425 7 5 C7.125 7.625 7.125 7.625 7 10 C6.34 9.67 5.68 9.34 5 9 C5 8.01 5 7.02 5 6 C4.34 6 3.68 6 3 6 C2.608125 5.525625 2.21625 5.05125 1.8125 4.5625 C-0.97734752 2.15745904 -3.38344267 2.12470887 -7 2 C-11.29128525 3.75552578 -12.76424668 6.06081557 -15 10 C-15.66 10 -16.32 10 -17 10 C-16.52048204 5.68433833 -15.29764982 3.7980059 -12 1 C-8.31859602 -0.84070199 -4.02730403 -0.36784824 0 0 Z " fill="#131112" transform="translate(213,4)"/>
<path d="M0 0 C0.66 0 1.32 0 2 0 C2 8.91 2 17.82 2 27 C1.34 26.67 0.68 26.34 0 26 C-1.46311242 20.58560793 -0.90572596 15.15606656 -0.5625 9.625 C-0.48418945 8.23474609 -0.48418945 8.23474609 -0.40429688 6.81640625 C-0.27544122 4.54386099 -0.14051689 2.27184901 0 0 Z " fill="#0F050B" transform="translate(46,7)"/>
<path d="M0 0 C1.485 0.99 1.485 0.99 3 2 C2.67 2.99 2.34 3.98 2 5 C1.92970879 7.57265818 1.90629168 10.11641431 1.9375 12.6875 C1.94201172 13.38939453 1.94652344 14.09128906 1.95117188 14.81445312 C1.96293073 16.54300538 1.98086546 18.27151365 2 20 C1.34 20.33 0.68 20.66 0 21 C-1.57152719 17.85694562 -1.14318589 14.508726 -1.125 11.0625 C-1.12886719 10.33353516 -1.13273438 9.60457031 -1.13671875 8.85351562 C-1.1308304 5.64142264 -1.02261853 3.0678556 0 0 Z " fill="#110D0F" transform="translate(130,10)"/>
<path d="M0 0 C0.99 0.33 1.98 0.66 3 1 C2 3 1 5 0 7 C-0.23029956 9.37123246 -0.41119942 11.74741943 -0.5625 14.125 C-0.64628906 15.40632813 -0.73007813 16.68765625 -0.81640625 18.0078125 C-0.90728516 19.48894531 -0.90728516 19.48894531 -1 21 C-1.33 21 -1.66 21 -2 21 C-2.24913692 18.25048889 -2.47491836 15.5023728 -2.6875 12.75 C-2.76033203 11.97269531 -2.83316406 11.19539063 -2.90820312 10.39453125 C-3.33135078 4.57002825 -3.33135078 4.57002825 -1.51953125 1.453125 C-1.01808594 0.97359375 -0.51664062 0.4940625 0 0 Z " fill="#0D0B0B" transform="translate(124,7)"/>
<path d="M0 0 C3 1 3 1 4.1875 3.25 C4.99938294 5.99791147 5.16260121 8.15447889 5 11 C4.34 11 3.68 11 3 11 C3 10.01 3 9.02 3 8 C2.01 7.67 1.02 7.34 0 7 C0 4.69 0 2.38 0 0 Z " fill="#10090B" transform="translate(61,21)"/>
<path d="M0 0 C0.99 0.33 1.98 0.66 3 1 C2.67 1.66 2.34 2.32 2 3 C1.77049681 5.204364 1.58924067 7.41392173 1.4375 9.625 C1.35371094 10.81351563 1.26992187 12.00203125 1.18359375 13.2265625 C1.12300781 14.14179688 1.06242188 15.05703125 1 16 C0.34 16 -0.32 16 -1 16 C-1.02692484 13.70839681 -1.04636124 11.41670454 -1.0625 9.125 C-1.07410156 7.84882813 -1.08570313 6.57265625 -1.09765625 5.2578125 C-1 2 -1 2 0 0 Z " fill="#1C1B1D" transform="translate(205,11)"/>
<path d="M0 0 C2.475 0.495 2.475 0.495 5 1 C4.01 1.33 3.02 1.66 2 2 C2 3.65 2 5.3 2 7 C2.66 7 3.32 7 4 7 C4.66 5.68 5.32 4.36 6 3 C6 4.32 6 5.64 6 7 C5 8 5 8 2.4375 8.0625 C1.633125 8.041875 0.82875 8.02125 0 8 C0 5.36 0 2.72 0 0 Z " fill="#140F11" transform="translate(176,10)"/>
<path d="M0 0 C2 1 2 1 2 1 Z M-1 1 C-0.34 1.33 0.32 1.66 1 2 C-0.875 6.75 -0.875 6.75 -2 9 C-3.9375 8.6875 -3.9375 8.6875 -6 8 C-6.33 7.01 -6.66 6.02 -7 5 C-6.38125 4.896875 -5.7625 4.79375 -5.125 4.6875 C-2.63473516 4.12474627 -2.63473516 4.12474627 -1 1 Z " fill="#0F090B" transform="translate(106,5)"/>
<path d="M0 0 C0 1.32 0 2.64 0 4 C-1.65 4 -3.3 4 -5 4 C-5.33 2.68 -5.66 1.36 -6 0 C-3.50907189 -1.24546405 -2.58919267 -0.7767578 0 0 Z " fill="#0B0507" transform="translate(35,20)"/>
<path d="M0 0 C0 1.32 0 2.64 0 4 C-1.65 4 -3.3 4 -5 4 C-5.33 2.68 -5.66 1.36 -6 0 C-3.50907189 -1.24546405 -2.58919267 -0.7767578 0 0 Z " fill="#0A0304" transform="translate(18,20)"/>
<path d="M0 0 C0.99 0 1.98 0 3 0 C3.33 1.65 3.66 3.3 4 5 C3.34 5 2.68 5 2 5 C1.67 7.31 1.34 9.62 1 12 C0.67 12 0.34 12 0 12 C0 8.04 0 4.08 0 0 Z " fill="#161113" transform="translate(176,24)"/>
<path d="M0 0 C1.65 0.33 3.3 0.66 5 1 C5 2.32 5 3.64 5 5 C3.02 5 1.04 5 -1 5 C-0.67 3.35 -0.34 1.7 0 0 Z " fill="#0C0405" transform="translate(22,19)"/>
<path d="M0 0 C3.35435922 1.38801071 5.11290303 2.88629 7 6 C7 6.99 7 7.98 7 9 C6.01 9 5.02 9 4 9 C2.47551369 6.0173094 1.06059933 3.181798 0 0 Z " fill="#0F0A0C" transform="translate(139,5)"/>
<path d="M0 0 C0.66 0 1.32 0 2 0 C3.80230168 3.82989106 4.19622241 6.78121808 4 11 C1.99952977 8.45394698 0.17427215 6.0335364 -1 3 C-0.67 2.01 -0.34 1.02 0 0 Z " fill="#0B0B0B" transform="translate(187,26)"/>
<path d="M0 0 C0.66 0.33 1.32 0.66 2 1 C0.87895467 2.31587941 -0.24696965 3.62760353 -1.375 4.9375 C-2.00148437 5.66839844 -2.62796875 6.39929688 -3.2734375 7.15234375 C-5 9 -5 9 -7 10 C-6.52048204 5.68433833 -5.29764982 3.7980059 -2 1 C-1.34 0.67 -0.68 0.34 0 0 Z " fill="#0D090B" transform="translate(203,4)"/>
<path d="M0 0 C0.66 0 1.32 0 2 0 C2 2.64 2 5.28 2 8 C1.34 8 0.68 8 0 8 C-0.98120464 4.94736336 -0.98120464 3.05263664 0 0 Z " fill="#0D0D0D" transform="translate(244,29)"/>
</svg>
